Coordinates
version=1
nRows=16
nColumns=40
inDegrees=yes

Units are S.I. units (second, meters, Newtons, ...)
Angles are in degrees.

endheader
time	pelvis_tilt	pelvis_list	pelvis_rotation	pelvis_tx	pelvis_ty	pelvis_tz	hip_flexion_r	hip_adduction_r	hip_rotation_r	knee_angle_r	knee_angle_r_beta	ankle_angle_r	subtalar_angle_r	mtp_angle_r	hip_flexion_l	hip_adduction_l	hip_rotation_l	knee_angle_l	knee_angle_l_beta	ankle_angle_l	subtalar_angle_l	mtp_angle_l	lumbar_extension	lumbar_bending	lumbar_rotation	arm_flex_r	arm_add_r	arm_rot_r	elbow_flex_r	pro_sup_r	wrist_flex_r	wrist_dev_r	arm_flex_l	arm_add_l	arm_rot_l	elbow_flex_l	pro_sup_l	wrist_flex_l	wrist_dev_l
      1.51000000	      0.27357643	      2.16014179	     -4.76768192	     -0.15392149	      0.89893064	     -1.44070303	      6.54311900	     -6.66653795	     -6.27606707	    -54.46310380	     -0.95056048	    -13.24298463	    -10.23335967	      2.20329463	     10.92511185	     -4.61505124	     13.65811229	    -14.68985818	     -0.25638639	      1.62954813	     -3.33674759	     -6.61503172	     -7.14972488	     -1.32223095	      1.13714806	      9.92530491	     -8.10025828	     14.97262321	     17.91573044	     89.95437384	      0.00000000	      0.00000000	      4.14476830	      7.06126804	     -8.97134405	     16.47443954	     89.95437384	      0.00000000	      0.00000000
      1.52000000	      0.54630335	      2.58048057	     -5.19324978	     -0.14613530	      0.89914438	     -1.44100717	      7.78807232	     -7.04737833	     -5.32147784	    -56.05030041	     -0.97826229	    -12.06305963	    -12.70748332	      3.47357904	      9.98307466	     -5.23494407	     13.70411121	    -14.47386839	     -0.25261666	      2.39300914	     -2.94153987	     -6.27404132	     -7.37965665	     -1.78980979	      1.34733569	      9.80456827	     -7.70254836	     13.13939421	     17.20782326	     89.95437384	      0.00000000	      0.00000000	      4.69003255	      7.47366019	    -10.32302573	     16.82859487	     89.95437384	      0.00000000	      0.00000000
      1.53000000	      0.92976475	      2.66603478	     -5.10636361	     -0.13846164	      0.89965099	     -1.44203386	      8.69743893	     -7.22980402	     -5.09468530	    -57.30565260	     -1.00017232	    -10.55871058	    -13.02893004	      6.58256473	      8.94430478	     -5.70415536	     12.57139018	    -14.35138695	     -0.25047895	      3.48671149	     -1.61192032	     -5.17729446	     -7.78979452	     -1.81707845	      1.01684966	      9.75027443	     -7.46028439	     11.84223519	     16.64294226	     89.95437384	      0.00000000	      0.00000000	      5.28247933	      7.82440405	    -11.39084208	     17.17457423	     89.95437384	      0.00000000	      0.00000000
      1.54000000	      1.25660387	      2.61880928	     -5.08962725	     -0.13080561	      0.90018516	     -1.44289596	      9.61818157	     -7.18492212	     -4.76797588	    -58.23698207	     -1.01642708	     -9.38763543	    -13.65366942	      6.60682165	      8.03919029	     -5.81728108	     12.50924997	    -14.37673432	     -0.25092135	      4.04627054	     -1.84026060	     -5.19752060	     -8.15429088	     -1.70267875	      0.70850386	      9.66812982	     -7.43876026	     11.87183377	     16.26801524	     89.95437384	      0.00000000	      0.00000000	      5.92073238	      7.98448040	    -11.48117707	     17.25967082	     89.95437384	      0.00000000	      0.00000000
      1.55000000	      1.54105678	      2.48855206	     -5.08713220	     -0.12315268	      0.90071226	     -1.44362186	     10.53782883	     -6.97154328	     -4.43037037	    -58.93452526	     -1.02860151	     -8.20431246	    -14.19583276	      6.65429722	      7.18654353	     -5.83806680	     12.33704586	    -14.42412822	     -0.25174853	      4.58484895	     -1.92712984	     -5.19288626	     -8.45014811	     -1.49363318	      0.42860586	      9.56818628	     -7.41277648	     11.81338223	     15.89260634	     89.95437384	      0.00000000	      0.00000000	      6.49634385	      8.20077631	    -11.78987432	     17.46683564	     89.95437384	      0.00000000	      0.00000000
      1.56000000	      1.74527966	      2.28829806	     -4.99840586	     -0.11560375	      0.90118411	     -1.44452426	     11.53373055	     -6.72753233	     -4.29851131	    -59.43695745	     -1.03737060	     -7.45517269	    -14.33314531	      6.58872724	      6.44788989	     -5.76321648	     12.22453662	    -14.52645171	     -0.25353441	      4.94363330	     -1.95505445	     -5.16908811	     -8.68187580	     -1.17120040	      0.08940549	      9.40157301	     -7.44958518	     11.75444704	     15.70436312	     89.95437384	      0.00000000	      0.00000000	      7.07852907	      8.38152686	    -11.92001127	     17.70955238	     89.95437384	      0.00000000	      0.00000000
      1.57000000	      1.97875604	      1.94896619	     -4.97873677	     -0.10781068	      0.90176226	     -1.44483683	     12.32486148	     -6.08210798	     -3.95225573	    -59.58452039	     -1.03994606	     -5.91217605	    -14.85339822	      7.09647289	      5.64620734	     -5.52280178	     11.90452376	    -14.68484584	     -0.25629891	      5.71356895	     -1.78135958	     -5.04962027	     -8.85642148	     -0.76995150	     -0.04843000	      9.13113086	     -7.42321233	     11.36735607	     15.45856957	     89.95437384	      0.00000000	      0.00000000	      7.58508816	      8.75475928	    -13.01652423	     18.13417961	     89.95437384	      0.00000000	      0.00000000
      1.58000000	      2.04573440	      1.90650191	     -4.75191609	     -0.10071281	      0.90223157	     -1.44604510	     13.41067830	     -5.93517406	     -3.81074442	    -59.55414385	     -1.03941589	     -5.64020175	    -14.49755382	      6.96641958	      5.23560101	     -5.59184530	     11.86987630	    -14.95645215	     -0.26103933	      5.75434497	     -1.75510336	     -4.97565216	     -8.97449936	     -0.59903742	     -0.44676551	      8.83463257	     -7.52704540	     11.33110455	     15.57235494	     89.95437384	      0.00000000	      0.00000000	      8.17980727	      8.95470961	    -12.97799386	     18.58329216	     89.95437384	      0.00000000	      0.00000000
      1.59000000	      2.30524658	      1.51591380	     -4.72196986	     -0.09302864	      0.90290099	     -1.44653439	     14.08192959	     -5.13476273	     -3.40383594	    -59.27731938	     -1.03458439	     -4.05365201	    -14.89960875	      8.01410333	      4.16479528	     -5.38448664	     11.20739944	    -14.62492148	     -0.25525303	      6.61406509	     -1.76352712	     -4.82247798	     -9.17272150	     -0.08745729	     -0.63730343	      8.74601143	     -7.51952982	     11.11721095	     15.09215985	     89.95437384	      0.00000000	      0.00000000	      8.76211502	      9.33580122	    -14.48396967	     18.81647726	     89.95437384	      0.00000000	      0.00000000
      1.60000000	      2.28393225	      1.39508780	     -4.60273228	     -0.08555519	      0.90307429	     -1.44725798	     15.17176442	     -4.84196088	     -3.35519567	    -58.92324981	     -1.02840472	     -3.49957874	    -14.77077811	      7.94129228	      3.63124101	     -5.33346820	     11.24840391	    -14.57578720	     -0.25439548	      6.98910836	     -1.77277955	     -4.80252363	     -9.07009909	      0.14221251	     -0.94193875	      8.47621668	     -7.55325535	     11.12279097	     14.95763542	     89.95437384	      0.00000000	      0.00000000	      9.24922900	      9.53039557	    -14.45613367	     19.10315380	     89.95437384	      0.00000000	      0.00000000
      1.61000000	      2.28924594	      1.15203189	     -4.59165290	     -0.07849881	      0.90334281	     -1.44776029	     16.15867747	     -4.24908495	     -3.07136652	    -58.29409949	     -1.01742397	     -2.57152963	    -14.63182232	      7.88910334	      3.05736197	     -5.19217576	     10.86375184	    -14.55651543	     -0.25405912	      7.38943410	     -1.87764315	     -4.78888864	     -9.09637987	      0.49587744	     -1.09116779	      8.26183575	     -7.64946906	     11.12472258	     14.90272984	     89.95437384	      0.00000000	      0.00000000	      9.74965979	      9.76030302	    -14.54396484	     19.59944971	     89.95437384	      0.00000000	      0.00000000
      1.62000000	      2.28924435	      0.97135751	     -4.46382404	     -0.07124562	      0.90349460	     -1.44834348	     17.08843271	     -3.83750413	     -3.07204189	    -57.46628652	     -1.00297591	     -1.93352597	    -14.37844593	      7.82717537	      2.47276473	     -5.07703957	     10.70414733	    -14.49701625	     -0.25302067	      7.81822809	     -1.92735362	     -4.75227955	     -9.04135688	      0.76231899	     -1.33946943	      8.00488875	     -7.70484675	     11.14740921	     14.82199277	     89.95437384	      0.00000000	      0.00000000	     10.22909372	     10.01581100	    -14.62469707	     20.07866218	     89.95437384	      0.00000000	      0.00000000
      1.63000000	      2.19312062	      1.00361882	     -4.33277886	     -0.06428446	      0.90337401	     -1.44918923	     18.19506414	     -3.71643385	     -3.12134612	    -56.59701594	     -0.98780427	     -1.60054730	    -14.00825193	      7.69858403	      2.14280611	     -5.18043444	     10.71078851	    -14.61511216	     -0.25508183	      7.92515045	     -1.91786611	     -4.69385209	     -8.96111690	      0.83043582	     -1.57392535	      7.69806096	     -7.80501930	     11.13239550	     14.91362783	     89.95437384	      0.00000000	      0.00000000	     10.72562552	     10.24374222	    -14.57473846	     20.58716589	     89.95437384	      0.00000000	      0.00000000
      1.64000000	      2.51987255	      0.46146150	     -4.04758778	     -0.05667449	      0.90399363	     -1.44971514	     18.37682528	     -2.86353931	     -3.30361125	    -55.12419163	     -0.96209864	     -0.43724280	    -13.72275756	      7.66722125	      1.02918556	     -4.71059897	     10.21439939	    -14.31690779	     -0.24987718	      8.54183192	     -2.17925282	     -4.71594058	     -9.29284812	      1.50452366	     -1.95169319	      7.51878450	     -7.91096433	     11.23033199	     14.78785017	     89.95437384	      0.00000000	      0.00000000	     11.10896328	     10.57087939	    -14.93582669	     21.24526745	     89.95437384	      0.00000000	      0.00000000
      1.65000000	      2.43200482	      0.45902242	     -3.94183331	     -0.04953917	      0.90372738	     -1.45036853	     19.31967796	     -2.66063224	     -3.38893349	    -53.87134400	     -0.94023233	     -0.00017071	    -13.40193684	      7.57154803	      0.57472291	     -4.77347955	     10.21808111	    -14.24055565	     -0.24854458	      8.80643616	     -2.28980272	     -4.69640085	     -9.16410936	      1.59108704	     -2.11368283	      7.26877133	     -7.96900730	     11.27084101	     14.71181821	     89.95437384	      0.00000000	      0.00000000	     11.58520223	     10.78417487	    -14.94986648	     21.68220596	     89.95437384	      0.00000000	      0.00000000
      1.66000000	      2.76080624	      0.05872957	     -3.72095053	     -0.04199298	      0.90416374	     -1.45074284	     19.47694475	     -2.00238733	     -3.62661270	    -52.17008631	     -0.91053978	      0.76200206	    -12.91555792	      7.46441328	     -0.45621453	     -4.40040559	     10.00032635	    -14.07920534	     -0.24572849	      9.31555263	     -2.64991796	     -4.72786990	     -9.52008340	      2.07974639	     -2.36678812	      7.08398743	     -8.03190010	     11.36265521	     14.61922026	     89.95437384	      0.00000000	      0.00000000	     11.98241559	     11.05567058	    -15.05574086	     22.31503320	     89.95437384	      0.00000000	      0.00000000
